# File created by Blade
# Date/Time:  Thu Sep 25 19:04:16 2014
# Frame Rate: 120.000 fps
#------------------------------------------------------
:FULLY-SPECIFIED
:DEGREES
2291
root -0.851995 32.862600 -5.293590 10.629551 -1.000815 -0.040997
Spine -10.514343 3.912220 -2.316051
Head -10.572828 -8.374008 16.384822
LeftShoulder -15.936253 17.638764 30.328548
LeftArm 15.334225 -25.284854 -30.719952
LeftForeArm 13.158855 0.000000 10.249227
LeftHand -29.106231 -0.000000 -8.564460
LeftHandThumb1 -26.253704 0.000000 33.147579
RightShoulder -21.138832 13.475325 -41.479558
RightArm -9.058916 8.874568 27.005136
RightForeArm -33.929832 -0.000000 13.875611
RightHand -14.860251 0.000000 5.695618
RightHandThumb1 -24.326973 -0.000000 -32.862282
LeftUpLeg -4.021626 11.373870 4.839421
LeftLeg -0.400680 -0.000000 0.000000
LeftFoot -11.221598 6.292916 -21.744162
LeftToeBase 11.074315 -0.000000 -0.000000
RightUpLeg -6.388471 -11.778628 -7.796476
RightLeg 0.575665 -0.000000 -0.000000
RightFoot -4.846857 -6.541574 8.603114
RightToeBase 2.269347 -0.000000 -0.000000
2292
root -0.868871 32.860797 -5.292776 10.612343 -0.994947 -0.101305
Spine -10.492343 3.909159 -2.308584
Head -10.521858 -8.478375 16.489645
LeftShoulder -15.915283 17.610062 30.344147
LeftArm 15.311041 -25.314379 -30.695694
LeftForeArm 13.181792 -0.000000 10.272696
LeftHand -29.094188 0.000000 -8.542260
LeftHandThumb1 -26.253704 0.000000 33.147579
RightShoulder -21.163635 13.552526 -41.530774
RightArm -8.962846 8.812904 27.067507
RightForeArm -33.953984 -0.000000 13.842923
RightHand -14.828499 -0.000000 5.675229
RightHandThumb1 -24.326973 -0.000000 -32.862282
LeftUpLeg -3.967732 11.105116 4.958407
LeftLeg -0.450896 -0.000000 0.000000
LeftFoot -11.320767 6.508486 -21.872611
LeftToeBase 11.100292 -0.000000 -0.000000
RightUpLeg -6.360383 -11.719119 -7.716154
RightLeg 0.580338 -0.000000 -0.000000
RightFoot -4.847515 -6.532890 8.523176
RightToeBase 2.180397 -0.000000 -0.000000
2293
root -0.887931 32.859206 -5.291248 10.594625 -0.985770 -0.171402
Spine -10.472046 3.914635 -2.288384
Head -10.468570 -8.614833 16.555186
LeftShoulder -15.908755 17.639805 30.339162
LeftArm 15.328179 -25.455847 -30.723639
LeftForeArm 13.197223 -0.000000 10.382561
LeftHand -29.178134 -0.000000 -8.496547
LeftHandThumb1 -26.253704 0.000000 33.147579
RightShoulder -21.154129 13.594904 -41.575730
RightArm -8.926404 8.780493 27.136198
RightForeArm -33.808744 0.000000 13.847927
RightHand -14.793979 -0.000000 5.554996
RightHandThumb1 -24.326973 -0.000000 -32.862282
LeftUpLeg -3.944196 11.021980 5.076423
LeftLeg -0.455470 -0.000000 0.000000
LeftFoot -11.361293 6.580285 -21.864636
LeftToeBase 11.085100 -0.000000 -0.000000
RightUpLeg -6.326829 -11.698762 -7.617346
RightLeg 0.560287 -0.000000 -0.000000
RightFoot -4.859338 -6.540670 8.518565
RightToeBase 2.209885 -0.000000 -0.000000
2294
root -0.903243 32.858200 -5.289512 10.578561 -0.978596 -0.213253
Spine -10.456686 3.923548 -2.302538
Head -10.399270 -8.750512 16.607660
LeftShoulder -15.891966 17.598680 30.325197
LeftArm 15.352291 -25.490937 -30.679449
LeftForeArm 13.172621 -0.000000 10.370158
LeftHand -29.207776 0.000000 -8.353559
LeftHandThumb1 -26.253704 0.000000 33.147579
RightShoulder -21.144135 13.622906 -41.623625
RightArm -8.908735 8.785500 27.222185
RightForeArm -33.775195 0.000000 13.876742
RightHand -14.576848 -0.000000 5.657073
RightHandThumb1 -24.326973 -0.000000 -32.862282
LeftUpLeg -3.929988 10.917622 5.147336
LeftLeg -0.433475 -0.000000 0.000000
LeftFoot -11.430640 6.717420 -21.900130
LeftToeBase 11.086548 -0.000000 -0.000000
RightUpLeg -6.299890 -11.725482 -7.548964
RightLeg 0.544857 -0.000000 -0.000000
RightFoot -4.851253 -6.511948 8.460041
RightToeBase 2.192358 -0.000000 -0.000000
2295
root -0.917913 32.856886 -5.287880 10.569223 -0.974502 -0.268379
Spine -10.461491 3.942474 -2.306991
Head -10.314296 -8.881614 16.660808
LeftShoulder -15.868355 17.555680 30.331956
LeftArm 15.371773 -25.552202 -30.671184
LeftForeArm 13.223782 -0.000000 10.412041
LeftHand -29.251428 -0.000000 -8.265210
LeftHandThumb1 -26.253704 0.000000 33.147579
RightShoulder -21.130435 13.635219 -41.640297
RightArm -8.844445 8.811067 27.306252
RightForeArm -33.755751 -0.000000 13.893739
RightHand -14.789161 -0.000000 5.426723
RightHandThumb1 -24.326973 -0.000000 -32.862282
LeftUpLeg -3.920903 10.895002 5.226904
LeftLeg -0.423703 -0.000000 0.000000
LeftFoot -11.481208 6.760001 -21.878563
LeftToeBase 11.169362 -0.000000 -0.000000
RightUpLeg -6.274903 -11.770079 -7.468736
RightLeg 0.500844 -0.000000 -0.000000
RightFoot -4.842824 -6.497926 8.504924
RightToeBase 2.268401 -0.000000 -0.000000
2296
root -0.931373 32.855762 -5.286282 10.560091 -0.998530 -0.318507
Spine -10.471742 3.994291 -2.320341
Head -10.212198 -9.018561 16.696809
LeftShoulder -15.828018 17.498644 30.335376
LeftArm 15.380065 -25.591878 -30.639819
LeftForeArm 13.217371 -0.000000 10.441942
LeftHand -29.237178 -0.000000 -8.084696
LeftHandThumb1 -26.253704 0.000000 33.147579
RightShoulder -21.105799 13.659002 -41.656913
RightArm -8.820802 8.797159 27.370531
RightForeArm -33.650124 -0.000000 13.898975
RightHand -14.574381 0.000000 5.685898
RightHandThumb1 -24.326973 -0.000000 -32.862282
LeftUpLeg -3.902853 10.933240 5.293479
LeftLeg -0.424576 -0.000000 0.000000
LeftFoot -11.495650 6.774643 -21.882004
LeftToeBase 11.128731 -0.000000 -0.000000
RightUpLeg -6.259022 -11.776075 -7.400877
RightLeg 0.477509 -0.000000 -0.000000
RightFoot -4.834678 -6.446780 8.543101
RightToeBase 2.249773 -0.000000 -0.000000
2297
root -0.943985 32.854348 -5.285206 10.559215 -1.026759 -0.362836
Spine -10.494694 4.056877 -2.347921
Head -10.094419 -9.160593 16.726346
LeftShoulder -15.792948 17.467143 30.363903
LeftArm 15.418302 -25.666546 -30.666397
LeftForeArm 13.282976 0.000000 10.512792
LeftHand -29.304928 -0.000000 -7.970060
LeftHandThumb1 -26.253704 0.000000 33.147579
RightShoulder -21.109167 13.704925 -41.685051
RightArm -8.790887 8.813029 27.463879
RightForeArm -33.665184 -0.000000 13.929538
RightHand -14.636824 -0.000000 5.630573
RightHandThumb1 -24.326973 -0.000000 -32.862282
LeftUpLeg -3.891800 10.984490 5.354320
LeftLeg -0.433021 -0.000000 0.000000
LeftFoot -11.500678 6.770817 -21.822540
LeftToeBase 11.168741 -0.000000 -0.000000
RightUpLeg -6.258906 -11.799572 -7.335307
RightLeg 0.465729 -0.000000 -0.000000
RightFoot -4.817203 -6.375504 8.504160
RightToeBase 2.218979 -0.000000 -0.000000
2298
root -0.958425 32.853596 -5.285322 10.568921 -1.096641 -0.425648
Spine -10.535747 4.156817 -2.372923
Head -9.994759 -9.298685 16.736297
LeftShoulder -15.754019 17.424267 30.385525
LeftArm 15.449537 -25.613858 -30.602037
LeftForeArm 13.118861 -0.000000 10.504330
LeftHand -29.245102 -0.000000 -7.913131
LeftHandThumb1 -26.253704 0.000000 33.147579
RightShoulder -21.109043 13.688763 -41.658581
RightArm -8.655218 8.812811 27.560930
RightForeArm -33.620257 0.000000 13.850031
RightHand -14.647889 -0.000000 5.583403
RightHandThumb1 -24.326973 -0.000000 -32.862282
LeftUpLeg -3.879958 11.108227 5.427792
LeftLeg -0.447934 -0.000000 0.000000
LeftFoot -11.499469 6.722644 -21.826697
LeftToeBase 11.196666 -0.000000 -0.000000
RightUpLeg -6.285079 -11.755225 -7.252986
RightLeg 0.483092 -0.000000 -0.000000
RightFoot -4.803044 -6.288268 8.418103
RightToeBase 2.190866 -0.000000 -0.000000
2299
root -0.969621 32.852997 -5.281537 10.564728 -1.121476 -0.487674
Spine -10.569040 4.183706 -2.364176
Head -9.832100 -9.404866 16.718370
LeftShoulder -15.755669 17.406330 30.398266
LeftArm 15.513771 -25.639944 -30.619958
LeftForeArm 13.148451 -0.000000 10.535372
LeftHand -29.234342 0.000000 -7.893009
LeftHandThumb1 -26.253704 0.000000 33.147579
RightShoulder -21.084210 13.726065 -41.640633
RightArm -8.581390 8.778536 27.648868
RightForeArm -33.503786 -0.000000 13.907888
RightHand -14.900191 0.000000 5.564891
RightHandThumb1 -24.326973 -0.000000 -32.862282
LeftUpLeg -3.850857 11.187003 5.499682
LeftLeg -0.463015 -0.000000 0.000000
LeftFoot -11.506481 6.681180 -21.810193
LeftToeBase 11.281245 -0.000000 -0.000000
RightUpLeg -6.270502 -11.825794 -7.165736
RightLeg 0.434114 -0.000000 -0.000000
RightFoot -4.759034 -6.228662 8.477291
RightToeBase 2.181766 -0.000000 -0.000000
